{
  "accessors": [
    {
      "bufferView": 2,
      "componentType": 5126,
      "count": 263,
      "max": [
        1.030189037322998,
        1.0,
        1.0
      ],
      "min": [
        -1.0,
        -1.0,
        -1.0
      ],
      "type": "VEC3"
    },
    {
      "bufferView": 2,
      "byteOffset": 3156,
      "componentType": 5126,
      "count": 263,
      "max": [
        1.0,
        0.9951848387718201,
        0.9951848387718201
      ],
      "min": [
        -1.0,
        -0.9951848387718201,
        -0.9951848387718201
      ],
      "type": "VEC3"
    },
    {
      "bufferView": 1,
      "componentType": 5126,
      "count": 263,
      "max": [
        0.7759677767753601,
        0.8962796330451965
      ],
      "min": [
        0.25533628463745117,
        0.09994196891784668
      ],
      "type": "VEC2"
    },
    {
      "bufferView": 0,
      "componentType": 5125,
      "count": 1287,
      "type": "SCALAR"
    },
    {
      "bufferView": 2,
      "byteOffset": 6312,
      "componentType": 5126,
      "count": 641,
      "max": [
        0.983296275138855,
        0.9271910190582275,
        -0.9979457259178162
      ],
      "min": [
        -0.9701905846595764,
        -0.9192237854003906,
        -1.1180750131607056
      ],
      "type": "VEC3"
    },
    {
      "bufferView": 2,
      "byteOffset": 14004,
      "componentType": 5126,
      "count": 641,
      "max": [
        0.8099798560142517,
        0.7888383269309998,
        0.999984860420227
      ],
      "min": [
        -0.8099802732467651,
        -0.7888382077217102,
        -0.999984860420227
      ],
      "type": "VEC3"
    },
    {
      "bufferView": 1,
      "byteOffset": 2104,
      "componentType": 5126,
      "count": 641,
      "max": [
        0.875,
        1.0
      ],
      "min": [
        0.0,
        0.0
      ],
      "type": "VEC2"
    },
    {
      "bufferView": 0,
      "byteOffset": 5148,
      "componentType": 5125,
      "count": 3588,
      "type": "SCALAR"
    }
  ],
  "asset": {
    "extras": {
      "author": "RackRibs (https://sketchfab.com/RackRibs)",
      "license": "CC-BY-4.0 (http://creativecommons.org/licenses/by/4.0/)",
      "source": "https://sketchfab.com/3d-models/vending-machine-d62a741a00e04d84bc45b6ccb039cf8a",
      "title": "Vending Machine"
    },
    "generator": "Sketchfab-15.17.0",
    "version": "2.0"
  },
  "bufferViews": [
    {
      "buffer": 0,
      "byteLength": 19500,
      "name": "floatBufferViews",
      "target": 34963
    },
    {
      "buffer": 0,
      "byteLength": 7232,
      "byteOffset": 19500,
      "byteStride": 8,
      "name": "floatBufferViews",
      "target": 34962
    },
    {
      "buffer": 0,
      "byteLength": 21696,
      "byteOffset": 26732,
      "byteStride": 12,
      "name": "floatBufferViews",
      "target": 34962
    }
  ],
  "buffers": [
    {
      "byteLength": 48428,
      "uri": "scene.bin"
    }
  ],
  "images": [
    {
      "uri": "textures/vending_machine_front_baseColor.png"
    }
  ],
  "materials": [
    {
      "doubleSided": true,
      "name": "vending_machine_front",
      "pbrMetallicRoughness": {
        "baseColorTexture": {
          "index": 0
        },
        "metallicFactor": 0.0,
        "roughnessFactor": 0.8211145618000169
      }
    },
    {
      "doubleSided": true,
      "name": "vending_machine_bottom",
      "pbrMetallicRoughness": {
        "baseColorFactor": [
          0.0188484,
          0.0188484,
          0.0188484,
          1.0
        ],
        "metallicFactor": 0.0,
        "roughnessFactor": 0.9957853696332893
      }
    }
  ],
  "meshes": [
    {
      "name": "vending machine_vending machine front_0",
      "primitives": [
        {
          "attributes": {
            "NORMAL": 1,
            "POSITION": 0,
            "TEXCOORD_0": 2
          },
          "indices": 3,
          "material": 0,
          "mode": 4
        }
      ]
    },
    {
      "name": "vending machine_vending machine bottom_0",
      "primitives": [
        {
          "attributes": {
            "NORMAL": 5,
            "POSITION": 4,
            "TEXCOORD_0": 6
          },
          "indices": 7,
          "material": 1,
          "mode": 4
        }
      ]
    }
  ],
  "nodes": [
    {
      "children": [
        1
      ],
      "matrix": [
        1.0,
        0.0,
        0.0,
        0.0,
        0.0,
        2.220446049250313e-16,
        -1.0,
        0.0,
        0.0,
        1.0,
        2.220446049250313e-16,
        0.0,
        0.0,
        0.0,
        0.0,
        1.0
      ],
      "name": "Sketchfab_model"
    },
    {
      "children": [
        2
      ],
      "matrix": [
        0.009999999776482582,
        0.0,
        0.0,
        0.0,
        0.0,
        0.0,
        0.009999999776482582,
        0.0,
        0.0,
        -0.009999999776482582,
        0.0,
        0.0,
        0.0,
        0.0,
        0.0,
        1.0
      ],
      "name": "b8d7a0ebff0d4b3f929f188c17de92b6.fbx"
    },
    {
      "children": [
        3
      ],
      "name": "RootNode"
    },
    {
      "children": [
        4,
        5
      ],
      "matrix": [
        57.89937973022461,
        0.0,
        0.0,
        0.0,
        0.0,
        -1.1749762780073189e-05,
        -72.11952972412014,
        0.0,
        0.0,
        108.43732452392435,
        -1.7666682582870492e-05,
        0.0,
        0.0,
        121.28041076660156,
        -3.6122820377349854,
        1.0
      ],
      "name": "vending machine"
    },
    {
      "mesh": 0,
      "name": "vending machine_vending machine front_0"
    },
    {
      "mesh": 1,
      "name": "vending machine_vending machine bottom_0"
    }
  ],
  "samplers": [
    {
      "magFilter": 9729,
      "minFilter": 9987,
      "wrapS": 10497,
      "wrapT": 10497
    }
  ],
  "scene": 0,
  "scenes": [
    {
      "name": "Sketchfab_Scene",
      "nodes": [
        0
      ]
    }
  ],
  "textures": [
    {
      "sampler": 0,
      "source": 0
    }
  ]
}
